<mxfile host="app.diagrams.net" modified="2024-04-11T00:30:57.613Z" agent="Mozilla/5.0 (Windows NT 10.0; Win64; x64) AppleWebKit/537.36 (KHTML, like Gecko) Chrome/123.0.0.0 Safari/537.36" etag="Qgv-rBSoQnzQbtb3w-5e" version="24.2.3" type="device">
  <diagram id="0Dm5w2m5YU30e-U3Iji7" name="Page-1">
    <mxGraphModel dx="882" dy="578" grid="1" gridSize="10" guides="1" tooltips="1" connect="1" arrows="1" fold="1" page="1" pageScale="1" pageWidth="850" pageHeight="1100" math="0" shadow="0">
      <root>
        <mxCell id="0" />
        <mxCell id="1" parent="0" />
        <mxCell id="YDy96Od6qkfJMvFy68V8-1" value="HEAD" style="rounded=1;whiteSpace=wrap;html=1;" parent="1" vertex="1">
          <mxGeometry x="80" y="80" width="80" height="40" as="geometry" />
        </mxCell>
        <mxCell id="YDy96Od6qkfJMvFy68V8-6" value="" style="swimlane;startSize=0;" parent="1" vertex="1">
          <mxGeometry x="40" y="40" width="160" height="200" as="geometry" />
        </mxCell>
        <mxCell id="YDy96Od6qkfJMvFy68V8-7" value="file.txt (v1)&lt;div&gt;eb43bf8&lt;/div&gt;" style="rounded=1;whiteSpace=wrap;html=1;" parent="YDy96Od6qkfJMvFy68V8-6" vertex="1">
          <mxGeometry x="40" y="120" width="80" height="40" as="geometry" />
        </mxCell>
        <mxCell id="YDy96Od6qkfJMvFy68V8-8" value="" style="swimlane;startSize=0;" parent="1" vertex="1">
          <mxGeometry x="240" y="40" width="160" height="200" as="geometry" />
        </mxCell>
        <mxCell id="YDy96Od6qkfJMvFy68V8-2" value="Index (staging area)" style="rounded=1;whiteSpace=wrap;html=1;" parent="YDy96Od6qkfJMvFy68V8-8" vertex="1">
          <mxGeometry x="40" y="40" width="80" height="40" as="geometry" />
        </mxCell>
        <mxCell id="YDy96Od6qkfJMvFy68V8-9" value="file.txt (v2)" style="rounded=1;whiteSpace=wrap;html=1;" parent="YDy96Od6qkfJMvFy68V8-8" vertex="1">
          <mxGeometry x="40" y="120" width="80" height="40" as="geometry" />
        </mxCell>
        <mxCell id="YDy96Od6qkfJMvFy68V8-10" value="" style="swimlane;startSize=0;" parent="1" vertex="1">
          <mxGeometry x="440" y="40" width="160" height="200" as="geometry" />
        </mxCell>
        <mxCell id="YDy96Od6qkfJMvFy68V8-3" value="Working directory" style="rounded=1;whiteSpace=wrap;html=1;" parent="YDy96Od6qkfJMvFy68V8-10" vertex="1">
          <mxGeometry x="40" y="40" width="80" height="40" as="geometry" />
        </mxCell>
        <mxCell id="YDy96Od6qkfJMvFy68V8-11" value="file.txt (v2)" style="rounded=1;whiteSpace=wrap;html=1;" parent="YDy96Od6qkfJMvFy68V8-10" vertex="1">
          <mxGeometry x="40" y="120" width="80" height="40" as="geometry" />
        </mxCell>
        <mxCell id="YRZB9ucUaNQrcr_nW6Ok-1" style="edgeStyle=orthogonalEdgeStyle;rounded=0;orthogonalLoop=1;jettySize=auto;html=1;exitX=1;exitY=0.5;exitDx=0;exitDy=0;" parent="1" source="0yJU_FA9EbvK3_0QKE8a-1" target="0yJU_FA9EbvK3_0QKE8a-2" edge="1">
          <mxGeometry relative="1" as="geometry" />
        </mxCell>
        <mxCell id="0yJU_FA9EbvK3_0QKE8a-1" value="HEAD" style="rounded=1;whiteSpace=wrap;html=1;" parent="1" vertex="1">
          <mxGeometry x="40" y="280" width="80" height="40" as="geometry" />
        </mxCell>
        <mxCell id="YRZB9ucUaNQrcr_nW6Ok-2" style="edgeStyle=orthogonalEdgeStyle;rounded=0;orthogonalLoop=1;jettySize=auto;html=1;exitX=1;exitY=0.5;exitDx=0;exitDy=0;entryX=0;entryY=0.5;entryDx=0;entryDy=0;" parent="1" source="0yJU_FA9EbvK3_0QKE8a-2" target="0yJU_FA9EbvK3_0QKE8a-3" edge="1">
          <mxGeometry relative="1" as="geometry" />
        </mxCell>
        <mxCell id="0yJU_FA9EbvK3_0QKE8a-2" value="Master" style="rounded=1;whiteSpace=wrap;html=1;" parent="1" vertex="1">
          <mxGeometry x="200" y="280" width="80" height="40" as="geometry" />
        </mxCell>
        <mxCell id="0yJU_FA9EbvK3_0QKE8a-3" value="file.txt (v1)&lt;div&gt;eb43bf8&lt;/div&gt;" style="rounded=1;whiteSpace=wrap;html=1;" parent="1" vertex="1">
          <mxGeometry x="360" y="280" width="80" height="40" as="geometry" />
        </mxCell>
      </root>
    </mxGraphModel>
  </diagram>
</mxfile>
